<svg xmlns="http://www.w3.org/2000/svg" viewBox="0 0 239.93 79.57"><defs><style>.cls-1{fill:#fff;}</style></defs><g id="Layer_2" data-name="Layer 2"><g id="Layer_1-2" data-name="Layer 1"><path class="cls-1" d="M0,51.26V.84H17.86q26.87,0,26.86,24.58,0,11.78-7.33,18.81t-19.53,7ZM11.36,10.09v32H17q7.38,0,11.58-4.43t4.21-12.06c0-4.81-1.39-8.58-4.17-11.34s-6.67-4.13-11.69-4.13Z"/><path class="cls-1" d="M73.32,51.26H43.09V.84H72.16v9.25H54.44V21.3H70.93v9.22H54.44V42.05H73.32Z"/><path class="cls-1" d="M113.38.84,96,51.26H83.15L66,.84H78.23L88.74,35.93a25.46,25.46,0,0,1,1,5H90a28.22,28.22,0,0,1,1.09-5.17L101.5.84Z"/><path d="M174.22,51.26H161.85L158.26,40H140.33l-3.55,11.22h-12.3L142.83.84h13.46ZM155.66,31.32l-5.41-16.94a22.43,22.43,0,0,1-.85-4.54h-.28a19.29,19.29,0,0,1-.88,4.4l-5.48,17.08Z"/><path d="M129.13.8V9.59h-4.22V42.43h4.22v8.78H109.34V42.43h4.22V9.59h-4.22V.8Z"/><path d="M215,52.14q-10.83,0-17.65-7t-6.82-18.37q0-12,6.92-19.34T215.82,0q10.78,0,17.45,7.07t6.66,18.63q0,11.88-6.9,19.16T215,52.14Zm.49-42.37A11.43,11.43,0,0,0,206,14.26q-3.52,4.47-3.52,11.86T206,38a11.24,11.24,0,0,0,9.21,4.36,11.38,11.38,0,0,0,9.32-4.24Q228,33.86,228,26.33q0-7.83-3.34-12.2A10.91,10.91,0,0,0,215.5,9.77Z"/><path d="M202.68,57.68q0,10.42-6.45,16.16t-18.69,5.73q-8.08,0-12.82-2.16V67.67A25.78,25.78,0,0,0,177.19,71q6.26,0,9.69-3.09a10.74,10.74,0,0,0,3.44-8.41v-3h-.15q-4.23,6.3-12.47,6.3-7.66,0-12.16-5.06t-4.49-13.55q0-9.52,5-15.12a16.81,16.81,0,0,1,13.17-5.61c4.88,0,8.52,1.76,10.95,5.28h.15V24.46h12.36Zm-12.2-13.74V41a8.75,8.75,0,0,0-2.25-6.06,7.45,7.45,0,0,0-5.84-2.51,7.73,7.73,0,0,0-6.45,3q-2.34,3-2.34,8.46a11.44,11.44,0,0,0,2.22,7.42,7.48,7.48,0,0,0,6.1,2.72,7.78,7.78,0,0,0,6.2-2.76A10.89,10.89,0,0,0,190.48,43.94Z"/><path d="M176.16,15.47l-6.84-3.12V11.17l6.84-3.28V9.64l-4.88,2.08v0l4.88,2Z"/><path d="M186.76,12.26l-6.84,3.12V13.64l4.9-2v0l-4.9-2.1V7.82l6.84,3.25Z"/></g></g></svg>